<svg width="15" height="18" viewBox="0 0 15 18" fill="none" xmlns="http://www.w3.org/2000/svg">
<path d="M7.16036 8C7.96968 8 8.76083 7.76541 9.43375 7.32588C10.1067 6.88635 10.6312 6.26164 10.9409 5.53074C11.2506 4.79983 11.3316 3.99556 11.1737 3.21964C11.0158 2.44372 10.6261 1.73098 10.0538 1.17157C9.48156 0.612164 8.75244 0.231202 7.95867 0.0768607C7.1649 -0.0774802 6.34213 0.00173312 5.59442 0.304484C4.8467 0.607234 4.20762 1.11992 3.75799 1.77772C3.30835 2.43552 3.06836 3.20888 3.06836 4C3.06836 5.06087 3.49948 6.07828 4.26688 6.82843C5.03428 7.57857 6.07509 8 7.16036 8Z" fill="#FF0841"/>
<path d="M13.299 18C13.5703 18 13.8305 17.8946 14.0224 17.7071C14.2142 17.5196 14.322 17.2652 14.322 17C14.322 15.1435 13.5675 13.363 12.2246 12.0503C10.8816 10.7375 9.06021 10 7.161 10C5.26178 10 3.44036 10.7375 2.09741 12.0503C0.75446 13.363 2.83005e-08 15.1435 0 17C0 17.2652 0.10778 17.5196 0.29963 17.7071C0.49148 17.8946 0.751684 18 1.023 18H13.299Z" fill="#FF0841"/>
</svg>
