<svg width="13" height="13" viewBox="0 0 13 13" fill="none" xmlns="http://www.w3.org/2000/svg">
<path d="M6.50146 3.11679C4.65695 3.11679 3.16916 4.58133 3.16916 6.39702C3.16916 8.21271 4.65695 9.67725 6.50146 9.67725C8.34596 9.67725 9.83375 8.21271 9.83375 6.39702C9.83375 4.58133 8.34596 3.11679 6.50146 3.11679ZM6.50146 8.5296C5.30949 8.5296 4.33503 7.57322 4.33503 6.39702C4.33503 5.22082 5.30659 4.26444 6.50146 4.26444C7.69633 4.26444 8.66788 5.22082 8.66788 6.39702C8.66788 7.57322 7.69343 8.5296 6.50146 8.5296ZM10.7473 2.98261C10.7473 3.40798 10.3993 3.74771 9.97006 3.74771C9.53794 3.74771 9.19281 3.40513 9.19281 2.98261C9.19281 2.56009 9.54084 2.21751 9.97006 2.21751C10.3993 2.21751 10.7473 2.56009 10.7473 2.98261ZM12.9543 3.75913C12.905 2.73424 12.6672 1.82639 11.9045 1.07842C11.1446 0.33045 10.2224 0.0963514 9.18121 0.044964C8.10815 -0.014988 4.89186 -0.014988 3.8188 0.044964C2.78054 0.0934965 1.85828 0.327595 1.09554 1.07557C0.332795 1.82354 0.0978807 2.73138 0.0456777 3.75628C-0.0152259 4.81257 -0.0152259 7.97861 0.0456777 9.03491C0.0949806 10.0598 0.332795 10.9676 1.09554 11.7156C1.85828 12.4636 2.77764 12.6977 3.8188 12.7491C4.89186 12.809 8.10815 12.809 9.18121 12.7491C10.2224 12.7005 11.1446 12.4664 11.9045 11.7156C12.6643 10.9676 12.9021 10.0598 12.9543 9.03491C13.0152 7.97861 13.0152 4.81543 12.9543 3.75913ZM11.5681 10.1683C11.3418 10.7278 10.9039 11.1589 10.3326 11.3845C9.47703 11.7185 7.44691 11.6414 6.50146 11.6414C5.556 11.6414 3.52298 11.7156 2.67033 11.3845C2.1019 11.1618 1.66397 10.7307 1.43486 10.1683C1.09554 9.3261 1.17384 7.3277 1.17384 6.39702C1.17384 5.46634 1.09844 3.46508 1.43486 2.62575C1.66107 2.0662 2.099 1.63512 2.67033 1.40959C3.52588 1.07557 5.556 1.15265 6.50146 1.15265C7.44691 1.15265 9.47993 1.07842 10.3326 1.40959C10.901 1.63226 11.3389 2.06335 11.5681 2.62575C11.9074 3.46794 11.8291 5.46634 11.8291 6.39702C11.8291 7.3277 11.9074 9.32896 11.5681 10.1683Z" fill="#FF0841"/>
</svg>
