<svg width="138" height="17" viewBox="0 0 138 17" fill="none" xmlns="http://www.w3.org/2000/svg">
<path d="M7.79058 0.753927L5.74869 4.93194L1.13089 5.59162C0.314136 5.71728 0 6.72251 0.596859 7.31937L3.89529 10.555L3.10995 15.1099C2.98429 15.9267 3.86387 16.555 4.58639 16.178L8.70157 14.0105L12.7853 16.178C13.5079 16.555 14.3874 15.9267 14.2618 15.1099L13.4764 10.555L16.7749 7.31937C17.3717 6.72251 17.0576 5.71728 16.2408 5.59162L11.6545 4.93194L9.58115 0.753927C9.2356 0.0314136 8.16754 0 7.79058 0.753927Z" fill="#FFBB00"/>
<path d="M37.9476 0.753927L35.9058 4.93194L31.288 5.59162C30.4712 5.71728 30.1571 6.72251 30.7539 7.31937L34.0524 10.555L33.267 15.1099C33.1414 15.9267 34.0209 16.555 34.7435 16.178L38.8586 14.0105L42.9424 16.178C43.6649 16.555 44.5445 15.9267 44.4188 15.1099L43.6335 10.555L46.9319 7.31937C47.5288 6.72251 47.2147 5.71728 46.3979 5.59162L41.8115 4.93194L39.7382 0.753927C39.3927 0.0314136 38.3246 0 37.9476 0.753927Z" fill="#FFBB00"/>
<path d="M68.1047 0.753927L66.0628 4.93194L61.445 5.59162C60.6283 5.71728 60.3141 6.72251 60.911 7.31937L64.2094 10.555L63.4241 15.1099C63.2984 15.9267 64.178 16.555 64.9005 16.178L69.0157 14.0105L73.0995 16.178C73.822 16.555 74.7016 15.9267 74.5759 15.1099L73.7906 10.555L77.089 7.31937C77.6859 6.72251 77.3717 5.71728 76.555 5.59162L71.9686 4.93194L69.8953 0.753927C69.5497 0.0314136 68.4817 0 68.1047 0.753927Z" fill="#FFBB00"/>
<path d="M98.2618 0.753927L96.2199 4.93194L91.6021 5.59162C90.7853 5.71728 90.4712 6.72251 91.0681 7.31937L94.3665 10.555L93.5812 15.1099C93.4555 15.9267 94.3351 16.555 95.0576 16.178L99.1728 14.0105L103.257 16.178C103.979 16.555 104.859 15.9267 104.733 15.1099L103.948 10.555L107.246 7.31937C107.843 6.72251 107.529 5.71728 106.712 5.59162L102.126 4.93194L100.052 0.753927C99.7068 0.0314136 98.6387 0 98.2618 0.753927Z" fill="#FFBB00"/>
<path d="M128.419 0.753927L126.377 4.93194L121.759 5.59162C120.942 5.71728 120.628 6.72251 121.225 7.31937L124.524 10.555L123.738 15.1099C123.613 15.9267 124.492 16.555 125.215 16.178L129.33 14.0105L133.414 16.178C134.136 16.555 135.016 15.9267 134.89 15.1099L134.105 10.555L137.403 7.31937C138 6.72251 137.686 5.71728 136.869 5.59162L132.283 4.93194L130.209 0.753927C129.864 0.0314136 128.796 0 128.419 0.753927Z" fill="#FFBB00"/>
</svg>
