<svg width="82" height="82" viewBox="0 0 82 82" fill="none" xmlns="http://www.w3.org/2000/svg">
<g clip-path="url(#clip0_143_440)">
<g clip-path="url(#clip1_143_440)">
<path d="M37.3114 15.7268H27.7856C26.4391 15.7268 25.3833 16.8284 25.3833 18.1292V52.3401C25.3833 53.6669 26.4589 54.7425 27.7856 54.7425C29.1124 54.7425 30.188 53.6669 30.188 52.3401V39.8692C32.4174 39.8568 35.6799 39.8403 37.3116 39.8403C40.5315 39.8403 43.5847 38.5941 45.9086 36.3314C48.2615 34.0405 49.5573 31.0048 49.5573 27.7835C49.5573 24.5623 48.2615 21.5265 45.9086 19.2355C43.5846 16.973 40.5315 15.7268 37.3114 15.7268ZM37.3114 35.0356C35.6894 35.0356 32.4731 35.0517 30.2405 35.0642C30.1998 27.5821 30.2232 30.0981 30.1952 20.5315H37.3114C41.345 20.5315 44.7524 23.8525 44.7524 27.7835C44.7524 31.7146 41.345 35.0356 37.3114 35.0356Z" fill="#044AB3"/>
<path d="M59.9143 10.3198C53.2597 3.66502 44.4113 0 34.9998 0C25.5882 0 16.74 3.66502 10.0852 10.3198C-9.26085 29.6659 -0.0722015 63.0149 26.6716 69.4767V77.9961C26.6716 80.2038 28.4678 82 30.6755 82H39.324C41.5317 82 43.3279 80.2038 43.3279 77.9961V69.4767C70.0975 63.0087 79.2469 29.6523 59.9143 10.3198ZM38.5232 77.1953H31.4763V70.2943C33.813 70.5262 36.1865 70.5262 38.5232 70.2943V77.1953ZM40.4942 65.1698C21.972 68.5498 4.57008 54.4241 4.57008 35.2344C4.57008 18.4554 18.2207 4.80469 34.9998 4.80469C51.7789 4.80469 65.4294 18.4554 65.4294 35.2344C65.4294 49.9234 54.9685 62.5285 40.4942 65.1698Z" fill="#044AB3"/>
</g>
</g>
<defs>
<clipPath id="clip0_143_440">
<rect width="82" height="82" fill="white"/>
</clipPath>
<clipPath id="clip1_143_440">
<rect width="82" height="82" fill="white" transform="translate(-6)"/>
</clipPath>
</defs>
</svg>
