<svg width="15" height="12" viewBox="0 0 15 12" fill="none" xmlns="http://www.w3.org/2000/svg">
<path d="M13.4581 2.93197C13.4677 3.06064 13.4677 3.18934 13.4677 3.31801C13.4677 7.24261 10.3744 11.7647 4.72082 11.7647C2.97906 11.7647 1.36105 11.2775 0 10.432C0.247471 10.4595 0.485392 10.4687 0.742385 10.4687C2.17955 10.4687 3.50254 10 4.55901 9.20036C3.20749 9.17278 2.07487 8.31801 1.68463 7.14153C1.875 7.16908 2.06535 7.18747 2.26524 7.18747C2.54125 7.18747 2.81728 7.1507 3.07425 7.08639C1.66562 6.81063 0.609113 5.61579 0.609113 4.17278V4.13603C1.01836 4.35662 1.49429 4.49448 1.9987 4.51285C1.17065 3.97975 0.628156 3.06983 0.628156 2.04042C0.628156 1.48896 0.780412 0.983443 1.04693 0.542265C2.56026 2.34373 4.83502 3.52018 7.38576 3.64888C7.33818 3.42829 7.30962 3.19853 7.30962 2.96875C7.30962 1.3327 8.68019 0 10.3839 0C11.269 0 12.0685 0.358454 12.6301 0.937498C13.3248 0.808828 13.9911 0.560654 14.5812 0.220589C14.3527 0.909942 13.8674 1.48899 13.2297 1.85661C13.8483 1.7923 14.448 1.62682 15 1.39707C14.5813 1.98528 14.0578 2.50915 13.4581 2.93197Z" fill="#FF0841"/>
</svg>
