<svg width="18" height="13" viewBox="0 0 18 13" fill="none" xmlns="http://www.w3.org/2000/svg">
<g clip-path="url(#clip0_143_561)">
<path d="M17.596 1.94463C17.3897 1.17918 16.7819 0.576335 16.0101 0.371752C14.6112 0 9.00164 0 9.00164 0C9.00164 0 3.39216 0 1.9932 0.371752C1.22141 0.576368 0.613558 1.17918 0.40725 1.94463C0.0324085 3.33204 0.0324085 6.22676 0.0324085 6.22676C0.0324085 6.22676 0.0324085 9.12148 0.40725 10.5089C0.613558 11.2743 1.22141 11.8521 1.9932 12.0567C3.39216 12.4284 9.00164 12.4284 9.00164 12.4284C9.00164 12.4284 14.6111 12.4284 16.0101 12.0567C16.7819 11.8521 17.3897 11.2743 17.596 10.5089C17.9709 9.12148 17.9709 6.22676 17.9709 6.22676C17.9709 6.22676 17.9709 3.33204 17.596 1.94463ZM7.16702 8.85495V3.59858L11.8555 6.22683L7.16702 8.85495Z" fill="#FF0841"/>
</g>
<defs>
<clipPath id="clip0_143_561">
<rect width="17.8987" height="12.3586" fill="white" transform="scale(1.00565)"/>
</clipPath>
</defs>
</svg>
