<svg width="15" height="14" viewBox="0 0 15 14" fill="none" xmlns="http://www.w3.org/2000/svg">
<path d="M3.1474 14.0001H0.232257V4.65294H3.1474V14.0001ZM1.68826 3.3779C0.756091 3.3779 0 2.60913 0 1.68098C6.67205e-09 1.23516 0.17787 0.807593 0.494479 0.492348C0.811089 0.177103 1.2405 0 1.68826 0C2.13601 0 2.56543 0.177103 2.88204 0.492348C3.19865 0.807593 3.37652 1.23516 3.37652 1.68098C3.37652 2.60913 2.62011 3.3779 1.68826 3.3779ZM14.0578 14.0001H11.149V9.44994C11.149 8.36553 11.127 6.97487 9.63333 6.97487C8.1177 6.97487 7.88544 8.15303 7.88544 9.37181V14.0001H4.97344V4.65294H7.76931V5.92797H7.81011C8.1993 5.19358 9.14999 4.41855 10.5683 4.41855C13.5186 4.41855 14.061 6.35298 14.061 8.86555V14.0001H14.0578Z" fill="#FF0841"/>
</svg>
