<svg width="115" height="15" viewBox="0 0 115 15" fill="none" xmlns="http://www.w3.org/2000/svg">
<g filter="url(#filter0_d_143_307)">
<path d="M-8 15C-8 19.4183 -4.41828 23 0 23C4.41828 23 8 19.4183 8 15C8 10.5817 4.41828 7 0 7C-4.41828 7 -8 10.5817 -8 15ZM51.7053 1.03009L51.314 -0.417984V-0.417984L51.7053 1.03009ZM59.3434 0.980903L59.7159 -0.472093V-0.472093L59.3434 0.980903ZM106.018 15C106.018 19.4183 109.6 23 114.018 23C118.436 23 122.018 19.4183 122.018 15C122.018 10.5817 118.436 7 114.018 7C109.6 7 106.018 10.5817 106.018 15ZM0.391246 16.4481L52.0965 2.47817L51.314 -0.417984L-0.391246 13.5519L0.391246 16.4481ZM58.9708 2.4339L113.645 16.453L114.39 13.547L59.7159 -0.472093L58.9708 2.4339ZM52.0965 2.47817C54.3457 1.87047 56.714 1.85522 58.9708 2.4339L59.7159 -0.472093C56.9576 -1.17937 54.0631 -1.16073 51.314 -0.417984L52.0965 2.47817Z" fill="#FF0841" fill-opacity="0.5"/>
</g>
<defs>
<filter id="filter0_d_143_307" x="-12" y="-0.989136" width="138.018" height="31.9891" filterUnits="userSpaceOnUse" color-interpolation-filters="sRGB">
<feFlood flood-opacity="0" result="BackgroundImageFix"/>
<feColorMatrix in="SourceAlpha" type="matrix" values="0 0 0 0 0 0 0 0 0 0 0 0 0 0 0 0 0 0 127 0" result="hardAlpha"/>
<feOffset dy="4"/>
<feGaussianBlur stdDeviation="2"/>
<feComposite in2="hardAlpha" operator="out"/>
<feColorMatrix type="matrix" values="0 0 0 0 0 0 0 0 0 0 0 0 0 0 0 0 0 0 0.25 0"/>
<feBlend mode="normal" in2="BackgroundImageFix" result="effect1_dropShadow_143_307"/>
<feBlend mode="normal" in="SourceGraphic" in2="effect1_dropShadow_143_307" result="shape"/>
</filter>
</defs>
</svg>
