<svg width="82" height="82" viewBox="0 0 82 82" fill="none" xmlns="http://www.w3.org/2000/svg">
<g clip-path="url(#clip0_143_413)">
<path d="M40.8398 74.7129C43.7587 74.7129 46.125 72.3466 46.125 69.4277C46.125 66.5088 43.7587 64.1426 40.8398 64.1426C37.9209 64.1426 35.5547 66.5088 35.5547 69.4277C35.5547 72.3466 37.9209 74.7129 40.8398 74.7129Z" fill="#044AB3"/>
<path d="M81.1401 24.8027C70.613 13.508 56.358 7.28751 40.9994 7.28735C25.642 7.28751 11.387 13.508 0.859829 24.8027C-0.346145 26.0967 -0.274876 28.1236 1.01918 29.3298C2.3134 30.5358 4.34018 30.4646 5.54631 29.1704C14.8482 19.1901 27.439 13.6938 41.0005 13.6936C54.5609 13.6938 67.1517 19.1901 76.4536 29.1704C77.0845 29.8472 77.9398 30.1897 78.7975 30.1897C79.5795 30.1897 80.3635 29.9049 80.9807 29.3298C82.2748 28.1235 82.3462 26.0967 81.1401 24.8027Z" fill="#044AB3"/>
<path d="M69.378 38.0304C61.5965 30.1901 51.518 25.8725 40.999 25.8728C30.4775 25.873 20.3989 30.1908 12.6198 38.0307C11.3738 39.2865 11.3817 41.3145 12.6374 42.5605C13.8932 43.8066 15.9213 43.7987 17.1673 42.5429C23.7345 35.9243 32.1981 32.2792 40.999 32.279C49.7976 32.2787 58.2612 35.924 64.8308 42.5433C65.457 43.1741 66.2806 43.4899 67.1044 43.4899C67.9199 43.4899 68.7361 43.1802 69.361 42.5602C70.6165 41.3141 70.6241 39.286 69.378 38.0304Z" fill="#044AB3"/>
<path d="M56.5589 51.297C52.3916 47.1683 46.4183 44.6038 40.9695 44.6038C40.9688 44.6038 40.9677 44.6038 40.9671 44.6038H40.7363C40.7353 44.6038 40.7348 44.6038 40.7339 44.6038C35.2849 44.6038 29.3111 47.1685 25.144 51.297C23.8874 52.542 23.8779 54.5701 25.123 55.8268C25.7493 56.459 26.5738 56.7756 27.3985 56.7756C28.2132 56.7756 29.0282 56.4667 29.6527 55.848C32.6192 52.9088 36.9686 51.01 40.7342 51.01C40.7347 51.01 40.7353 51.01 40.7358 51.01H40.9675C40.9682 51.01 40.9683 51.01 40.969 51.01C44.7341 51.01 49.0838 52.909 52.05 55.848C53.3066 57.0929 55.335 57.0839 56.5799 55.8268C57.8251 54.5703 57.8156 52.542 56.5589 51.297Z" fill="#044AB3"/>
</g>
<defs>
<clipPath id="clip0_143_413">
<rect width="82" height="82" fill="white"/>
</clipPath>
</defs>
</svg>
