<svg width="108" height="17" viewBox="0 0 108 17" fill="none" xmlns="http://www.w3.org/2000/svg">
<path d="M7.80192 0.755025L5.75706 4.93912L1.13254 5.59977C0.314594 5.7256 0 6.7323 0.597728 7.33003L3.90096 10.5703L3.11448 15.132C2.98864 15.9499 3.8695 16.5791 4.59307 16.2016L8.71424 14.0309L12.804 16.2016C13.5275 16.5791 14.4084 15.9499 14.2826 15.132L13.4961 10.5703L16.7993 7.33003C17.397 6.7323 17.0824 5.7256 16.2645 5.59977L11.6714 4.93912L9.59511 0.755025C9.24905 0.0314594 8.17943 0 7.80192 0.755025Z" fill="#FFBB00"/>
<path d="M38.0029 0.755025L35.9581 4.93912L31.3335 5.59977C30.5156 5.7256 30.201 6.7323 30.7987 7.33003L34.102 10.5703L33.3155 15.132C33.1896 15.9499 34.0705 16.5791 34.7941 16.2016L38.9152 14.0309L43.005 16.2016C43.7285 16.5791 44.6094 15.9499 44.4835 15.132L43.6971 10.5703L47.0003 7.33003C47.598 6.7323 47.2834 5.7256 46.4655 5.59977L41.8724 4.93912L39.7961 0.755025C39.45 0.0314594 38.3804 0 38.0029 0.755025Z" fill="#FFBB00"/>
<path d="M68.2039 0.755025L66.159 4.93912L61.5345 5.59977C60.7166 5.7256 60.402 6.7323 60.9997 7.33003L64.3029 10.5703L63.5165 15.132C63.3906 15.9499 64.2715 16.5791 64.995 16.2016L69.1162 14.0309L73.2059 16.2016C73.9295 16.5791 74.8104 15.9499 74.6845 15.132L73.898 10.5703L77.2013 7.33003C77.799 6.7323 77.4844 5.7256 76.6665 5.59977L72.0734 4.93912L69.9971 0.755025C69.651 0.0314594 68.5814 0 68.2039 0.755025Z" fill="#FFBB00"/>
<path d="M98.4049 0.755025L96.36 4.93912L91.7355 5.59977C90.9176 5.7256 90.603 6.7323 91.2007 7.33003L94.5039 10.5703L93.7174 15.132C93.5916 15.9499 94.4725 16.5791 95.196 16.2016L99.3172 14.0309L103.407 16.2016C104.13 16.5791 105.011 15.9499 104.886 15.132L104.099 10.5703L107.402 7.33003C108 6.7323 107.685 5.7256 106.867 5.59977L102.274 4.93912L100.198 0.755025C99.852 0.0314594 98.7824 0 98.4049 0.755025Z" fill="#FFBB00"/>
</svg>
